<mxfile host="app.diagrams.net" agent="Mozilla/5.0 (X11; Ubuntu; Linux x86_64; rv:129.0) Gecko/20100101 Firefox/129.0" version="24.7.7">
  <diagram name="Page-1" id="SyIIpHN2W8r9hKR8EbdA">
    <mxGraphModel dx="2445" dy="1141" grid="1" gridSize="10" guides="1" tooltips="1" connect="1" arrows="1" fold="1" page="1" pageScale="1" pageWidth="850" pageHeight="1100" math="0" shadow="0">
      <root>
        <mxCell id="0" />
        <mxCell id="1" parent="0" />
        <mxCell id="kPSTsuMpHaf5HZJXgp0y-19" value="&lt;div style=&quot;font-size: 10px;&quot;&gt;Request&lt;/div&gt;&lt;div style=&quot;font-size: 10px;&quot;&gt;Message &lt;br&gt;&lt;/div&gt;" style="shape=parallelogram;perimeter=parallelogramPerimeter;whiteSpace=wrap;html=1;fixedSize=1;fillColor=#f8cecc;strokeColor=#b85450;fontSize=10;" vertex="1" parent="1">
          <mxGeometry x="-740" y="140" width="80" height="30" as="geometry" />
        </mxCell>
        <mxCell id="kPSTsuMpHaf5HZJXgp0y-20" value="" style="shape=parallelogram;perimeter=parallelogramPerimeter;whiteSpace=wrap;html=1;fixedSize=1;fillColor=#f8cecc;strokeColor=#b85450;fontSize=10;" vertex="1" parent="1">
          <mxGeometry x="-740" y="180" width="80" height="20" as="geometry" />
        </mxCell>
        <mxCell id="kPSTsuMpHaf5HZJXgp0y-21" value="" style="shape=parallelogram;perimeter=parallelogramPerimeter;whiteSpace=wrap;html=1;fixedSize=1;fillColor=#f8cecc;strokeColor=#b85450;fontSize=10;" vertex="1" parent="1">
          <mxGeometry x="-740" y="210" width="80" height="20" as="geometry" />
        </mxCell>
        <mxCell id="kPSTsuMpHaf5HZJXgp0y-22" value="&lt;font style=&quot;font-size: 13px;&quot;&gt;&lt;b&gt;...&lt;/b&gt;&lt;/font&gt;" style="text;html=1;align=center;verticalAlign=middle;resizable=0;points=[];autosize=1;strokeColor=none;fillColor=none;fontSize=10;" vertex="1" parent="1">
          <mxGeometry x="-720" y="260" width="30" height="30" as="geometry" />
        </mxCell>
        <mxCell id="kPSTsuMpHaf5HZJXgp0y-75" style="edgeStyle=orthogonalEdgeStyle;rounded=0;orthogonalLoop=1;jettySize=auto;html=1;exitX=1;exitY=0.5;exitDx=0;exitDy=0;entryX=0;entryY=0.5;entryDx=0;entryDy=0;" edge="1" parent="1" source="kPSTsuMpHaf5HZJXgp0y-23" target="kPSTsuMpHaf5HZJXgp0y-74">
          <mxGeometry relative="1" as="geometry" />
        </mxCell>
        <mxCell id="kPSTsuMpHaf5HZJXgp0y-23" value="&lt;div style=&quot;font-size: 10px;&quot;&gt;CAN Bus&lt;/div&gt;&lt;div style=&quot;font-size: 10px;&quot;&gt;Connection&lt;br style=&quot;font-size: 10px;&quot;&gt;&lt;/div&gt;" style="rhombus;whiteSpace=wrap;html=1;fillColor=#e1d5e7;strokeColor=#9673a6;fontSize=10;" vertex="1" parent="1">
          <mxGeometry x="-360" y="145" width="110" height="110" as="geometry" />
        </mxCell>
        <mxCell id="kPSTsuMpHaf5HZJXgp0y-59" style="edgeStyle=orthogonalEdgeStyle;rounded=0;orthogonalLoop=1;jettySize=auto;html=1;exitX=0.5;exitY=0;exitDx=0;exitDy=0;entryX=0.5;entryY=1;entryDx=0;entryDy=0;" edge="1" parent="1" source="kPSTsuMpHaf5HZJXgp0y-24" target="kPSTsuMpHaf5HZJXgp0y-58">
          <mxGeometry relative="1" as="geometry">
            <mxPoint x="-560" y="278" as="sourcePoint" />
          </mxGeometry>
        </mxCell>
        <mxCell id="kPSTsuMpHaf5HZJXgp0y-24" value="&lt;div style=&quot;font-size: 10px;&quot;&gt;Request&lt;/div&gt;&lt;div style=&quot;font-size: 10px;&quot;&gt;Frequency&lt;br style=&quot;font-size: 10px;&quot;&gt;&lt;/div&gt;" style="ellipse;whiteSpace=wrap;html=1;fillColor=#d5e8d4;strokeColor=#82b366;fontSize=10;" vertex="1" parent="1">
          <mxGeometry x="-590" y="278" width="60" height="42" as="geometry" />
        </mxCell>
        <mxCell id="kPSTsuMpHaf5HZJXgp0y-60" style="edgeStyle=orthogonalEdgeStyle;rounded=0;orthogonalLoop=1;jettySize=auto;html=1;exitX=0.5;exitY=0;exitDx=0;exitDy=0;" edge="1" parent="1" source="kPSTsuMpHaf5HZJXgp0y-25" target="kPSTsuMpHaf5HZJXgp0y-58">
          <mxGeometry relative="1" as="geometry" />
        </mxCell>
        <mxCell id="kPSTsuMpHaf5HZJXgp0y-25" value="&lt;div style=&quot;font-size: 10px;&quot;&gt;Message&lt;/div&gt;&lt;div style=&quot;font-size: 10px;&quot;&gt;Period&lt;br style=&quot;font-size: 10px;&quot;&gt;&lt;/div&gt;" style="ellipse;whiteSpace=wrap;html=1;fillColor=#d5e8d4;strokeColor=#82b366;fontSize=10;" vertex="1" parent="1">
          <mxGeometry x="-500" y="278" width="60" height="42" as="geometry" />
        </mxCell>
        <mxCell id="kPSTsuMpHaf5HZJXgp0y-31" value="&lt;font style=&quot;font-size: 18px;&quot;&gt;&lt;b&gt;Publishing/ Requesting&lt;br&gt;&lt;/b&gt;&lt;/font&gt;" style="text;html=1;whiteSpace=wrap;overflow=hidden;rounded=0;rotation=0;fontSize=10;" vertex="1" parent="1">
          <mxGeometry x="-610" y="130" width="210" height="29" as="geometry" />
        </mxCell>
        <mxCell id="kPSTsuMpHaf5HZJXgp0y-46" value="&lt;div style=&quot;font-size: 10px;&quot; align=&quot;left&quot;&gt;&lt;font style=&quot;font-size: 10px;&quot;&gt;&lt;span data-lucid-content=&quot;{&amp;quot;t&amp;quot;:&amp;quot;Arbitration ID\nIs Extended ID?\nData\nDecoded Data\nTimestamp\nDelay\n__hash__&amp;quot;,&amp;quot;m&amp;quot;:[{&amp;quot;s&amp;quot;:0,&amp;quot;n&amp;quot;:&amp;quot;a&amp;quot;,&amp;quot;v&amp;quot;:&amp;quot;left&amp;quot;},{&amp;quot;s&amp;quot;:0,&amp;quot;n&amp;quot;:&amp;quot;s&amp;quot;,&amp;quot;v&amp;quot;:22.22222222222222,&amp;quot;e&amp;quot;:73},{&amp;quot;s&amp;quot;:0,&amp;quot;n&amp;quot;:&amp;quot;fsp&amp;quot;,&amp;quot;v&amp;quot;:&amp;quot;ss_presetShapeStyle1_textStyle&amp;quot;,&amp;quot;e&amp;quot;:73},{&amp;quot;s&amp;quot;:0,&amp;quot;n&amp;quot;:&amp;quot;fsp2&amp;quot;,&amp;quot;v&amp;quot;:&amp;quot;ss_presetShapeStyle1_textStyle&amp;quot;,&amp;quot;e&amp;quot;:73},{&amp;quot;s&amp;quot;:15,&amp;quot;n&amp;quot;:&amp;quot;a&amp;quot;,&amp;quot;v&amp;quot;:&amp;quot;left&amp;quot;},{&amp;quot;s&amp;quot;:31,&amp;quot;n&amp;quot;:&amp;quot;a&amp;quot;,&amp;quot;v&amp;quot;:&amp;quot;left&amp;quot;},{&amp;quot;s&amp;quot;:36,&amp;quot;n&amp;quot;:&amp;quot;a&amp;quot;,&amp;quot;v&amp;quot;:&amp;quot;left&amp;quot;},{&amp;quot;s&amp;quot;:49,&amp;quot;n&amp;quot;:&amp;quot;a&amp;quot;,&amp;quot;v&amp;quot;:&amp;quot;left&amp;quot;},{&amp;quot;s&amp;quot;:59,&amp;quot;n&amp;quot;:&amp;quot;a&amp;quot;,&amp;quot;v&amp;quot;:&amp;quot;left&amp;quot;},{&amp;quot;s&amp;quot;:65,&amp;quot;n&amp;quot;:&amp;quot;a&amp;quot;,&amp;quot;v&amp;quot;:&amp;quot;left&amp;quot;}]}&quot; data-lucid-type=&quot;application/vnd.lucid.text&quot;&gt;&lt;span style=&quot;color: rgb(58, 65, 74);&quot;&gt;Arbitration ID&lt;/span&gt;&lt;/span&gt;&lt;br&gt;&lt;span data-lucid-content=&quot;{&amp;quot;t&amp;quot;:&amp;quot;Arbitration ID\nIs Extended ID?\nData\nDecoded Data\nTimestamp\nDelay\n__hash__&amp;quot;,&amp;quot;m&amp;quot;:[{&amp;quot;s&amp;quot;:0,&amp;quot;n&amp;quot;:&amp;quot;a&amp;quot;,&amp;quot;v&amp;quot;:&amp;quot;left&amp;quot;},{&amp;quot;s&amp;quot;:0,&amp;quot;n&amp;quot;:&amp;quot;s&amp;quot;,&amp;quot;v&amp;quot;:22.22222222222222,&amp;quot;e&amp;quot;:73},{&amp;quot;s&amp;quot;:0,&amp;quot;n&amp;quot;:&amp;quot;fsp&amp;quot;,&amp;quot;v&amp;quot;:&amp;quot;ss_presetShapeStyle1_textStyle&amp;quot;,&amp;quot;e&amp;quot;:73},{&amp;quot;s&amp;quot;:0,&amp;quot;n&amp;quot;:&amp;quot;fsp2&amp;quot;,&amp;quot;v&amp;quot;:&amp;quot;ss_presetShapeStyle1_textStyle&amp;quot;,&amp;quot;e&amp;quot;:73},{&amp;quot;s&amp;quot;:15,&amp;quot;n&amp;quot;:&amp;quot;a&amp;quot;,&amp;quot;v&amp;quot;:&amp;quot;left&amp;quot;},{&amp;quot;s&amp;quot;:31,&amp;quot;n&amp;quot;:&amp;quot;a&amp;quot;,&amp;quot;v&amp;quot;:&amp;quot;left&amp;quot;},{&amp;quot;s&amp;quot;:36,&amp;quot;n&amp;quot;:&amp;quot;a&amp;quot;,&amp;quot;v&amp;quot;:&amp;quot;left&amp;quot;},{&amp;quot;s&amp;quot;:49,&amp;quot;n&amp;quot;:&amp;quot;a&amp;quot;,&amp;quot;v&amp;quot;:&amp;quot;left&amp;quot;},{&amp;quot;s&amp;quot;:59,&amp;quot;n&amp;quot;:&amp;quot;a&amp;quot;,&amp;quot;v&amp;quot;:&amp;quot;left&amp;quot;},{&amp;quot;s&amp;quot;:65,&amp;quot;n&amp;quot;:&amp;quot;a&amp;quot;,&amp;quot;v&amp;quot;:&amp;quot;left&amp;quot;}]}&quot; data-lucid-type=&quot;application/vnd.lucid.text&quot;&gt;&lt;span style=&quot;color: rgb(58, 65, 74);&quot;&gt;&lt;/span&gt;&lt;span style=&quot;color: rgb(58, 65, 74);&quot;&gt;Is Extended ID?&lt;/span&gt;&lt;/span&gt;&lt;br&gt;&lt;span data-lucid-content=&quot;{&amp;quot;t&amp;quot;:&amp;quot;Arbitration ID\nIs Extended ID?\nData\nDecoded Data\nTimestamp\nDelay\n__hash__&amp;quot;,&amp;quot;m&amp;quot;:[{&amp;quot;s&amp;quot;:0,&amp;quot;n&amp;quot;:&amp;quot;a&amp;quot;,&amp;quot;v&amp;quot;:&amp;quot;left&amp;quot;},{&amp;quot;s&amp;quot;:0,&amp;quot;n&amp;quot;:&amp;quot;s&amp;quot;,&amp;quot;v&amp;quot;:22.22222222222222,&amp;quot;e&amp;quot;:73},{&amp;quot;s&amp;quot;:0,&amp;quot;n&amp;quot;:&amp;quot;fsp&amp;quot;,&amp;quot;v&amp;quot;:&amp;quot;ss_presetShapeStyle1_textStyle&amp;quot;,&amp;quot;e&amp;quot;:73},{&amp;quot;s&amp;quot;:0,&amp;quot;n&amp;quot;:&amp;quot;fsp2&amp;quot;,&amp;quot;v&amp;quot;:&amp;quot;ss_presetShapeStyle1_textStyle&amp;quot;,&amp;quot;e&amp;quot;:73},{&amp;quot;s&amp;quot;:15,&amp;quot;n&amp;quot;:&amp;quot;a&amp;quot;,&amp;quot;v&amp;quot;:&amp;quot;left&amp;quot;},{&amp;quot;s&amp;quot;:31,&amp;quot;n&amp;quot;:&amp;quot;a&amp;quot;,&amp;quot;v&amp;quot;:&amp;quot;left&amp;quot;},{&amp;quot;s&amp;quot;:36,&amp;quot;n&amp;quot;:&amp;quot;a&amp;quot;,&amp;quot;v&amp;quot;:&amp;quot;left&amp;quot;},{&amp;quot;s&amp;quot;:49,&amp;quot;n&amp;quot;:&amp;quot;a&amp;quot;,&amp;quot;v&amp;quot;:&amp;quot;left&amp;quot;},{&amp;quot;s&amp;quot;:59,&amp;quot;n&amp;quot;:&amp;quot;a&amp;quot;,&amp;quot;v&amp;quot;:&amp;quot;left&amp;quot;},{&amp;quot;s&amp;quot;:65,&amp;quot;n&amp;quot;:&amp;quot;a&amp;quot;,&amp;quot;v&amp;quot;:&amp;quot;left&amp;quot;}]}&quot; data-lucid-type=&quot;application/vnd.lucid.text&quot;&gt;&lt;span style=&quot;color: rgb(58, 65, 74);&quot;&gt;&lt;/span&gt;&lt;span style=&quot;color: rgb(58, 65, 74);&quot;&gt;Data&lt;/span&gt;&lt;/span&gt;&lt;br&gt;&lt;span data-lucid-content=&quot;{&amp;quot;t&amp;quot;:&amp;quot;Arbitration ID\nIs Extended ID?\nData\nDecoded Data\nTimestamp\nDelay\n__hash__&amp;quot;,&amp;quot;m&amp;quot;:[{&amp;quot;s&amp;quot;:0,&amp;quot;n&amp;quot;:&amp;quot;a&amp;quot;,&amp;quot;v&amp;quot;:&amp;quot;left&amp;quot;},{&amp;quot;s&amp;quot;:0,&amp;quot;n&amp;quot;:&amp;quot;s&amp;quot;,&amp;quot;v&amp;quot;:22.22222222222222,&amp;quot;e&amp;quot;:73},{&amp;quot;s&amp;quot;:0,&amp;quot;n&amp;quot;:&amp;quot;fsp&amp;quot;,&amp;quot;v&amp;quot;:&amp;quot;ss_presetShapeStyle1_textStyle&amp;quot;,&amp;quot;e&amp;quot;:73},{&amp;quot;s&amp;quot;:0,&amp;quot;n&amp;quot;:&amp;quot;fsp2&amp;quot;,&amp;quot;v&amp;quot;:&amp;quot;ss_presetShapeStyle1_textStyle&amp;quot;,&amp;quot;e&amp;quot;:73},{&amp;quot;s&amp;quot;:15,&amp;quot;n&amp;quot;:&amp;quot;a&amp;quot;,&amp;quot;v&amp;quot;:&amp;quot;left&amp;quot;},{&amp;quot;s&amp;quot;:31,&amp;quot;n&amp;quot;:&amp;quot;a&amp;quot;,&amp;quot;v&amp;quot;:&amp;quot;left&amp;quot;},{&amp;quot;s&amp;quot;:36,&amp;quot;n&amp;quot;:&amp;quot;a&amp;quot;,&amp;quot;v&amp;quot;:&amp;quot;left&amp;quot;},{&amp;quot;s&amp;quot;:49,&amp;quot;n&amp;quot;:&amp;quot;a&amp;quot;,&amp;quot;v&amp;quot;:&amp;quot;left&amp;quot;},{&amp;quot;s&amp;quot;:59,&amp;quot;n&amp;quot;:&amp;quot;a&amp;quot;,&amp;quot;v&amp;quot;:&amp;quot;left&amp;quot;},{&amp;quot;s&amp;quot;:65,&amp;quot;n&amp;quot;:&amp;quot;a&amp;quot;,&amp;quot;v&amp;quot;:&amp;quot;left&amp;quot;}]}&quot; data-lucid-type=&quot;application/vnd.lucid.text&quot;&gt;&lt;span style=&quot;color: rgb(58, 65, 74);&quot;&gt;&lt;/span&gt;&lt;span style=&quot;color: rgb(58, 65, 74);&quot;&gt;Decoded Data&lt;/span&gt;&lt;/span&gt;&lt;br&gt;&lt;span data-lucid-content=&quot;{&amp;quot;t&amp;quot;:&amp;quot;Arbitration ID\nIs Extended ID?\nData\nDecoded Data\nTimestamp\nDelay\n__hash__&amp;quot;,&amp;quot;m&amp;quot;:[{&amp;quot;s&amp;quot;:0,&amp;quot;n&amp;quot;:&amp;quot;a&amp;quot;,&amp;quot;v&amp;quot;:&amp;quot;left&amp;quot;},{&amp;quot;s&amp;quot;:0,&amp;quot;n&amp;quot;:&amp;quot;s&amp;quot;,&amp;quot;v&amp;quot;:22.22222222222222,&amp;quot;e&amp;quot;:73},{&amp;quot;s&amp;quot;:0,&amp;quot;n&amp;quot;:&amp;quot;fsp&amp;quot;,&amp;quot;v&amp;quot;:&amp;quot;ss_presetShapeStyle1_textStyle&amp;quot;,&amp;quot;e&amp;quot;:73},{&amp;quot;s&amp;quot;:0,&amp;quot;n&amp;quot;:&amp;quot;fsp2&amp;quot;,&amp;quot;v&amp;quot;:&amp;quot;ss_presetShapeStyle1_textStyle&amp;quot;,&amp;quot;e&amp;quot;:73},{&amp;quot;s&amp;quot;:15,&amp;quot;n&amp;quot;:&amp;quot;a&amp;quot;,&amp;quot;v&amp;quot;:&amp;quot;left&amp;quot;},{&amp;quot;s&amp;quot;:31,&amp;quot;n&amp;quot;:&amp;quot;a&amp;quot;,&amp;quot;v&amp;quot;:&amp;quot;left&amp;quot;},{&amp;quot;s&amp;quot;:36,&amp;quot;n&amp;quot;:&amp;quot;a&amp;quot;,&amp;quot;v&amp;quot;:&amp;quot;left&amp;quot;},{&amp;quot;s&amp;quot;:49,&amp;quot;n&amp;quot;:&amp;quot;a&amp;quot;,&amp;quot;v&amp;quot;:&amp;quot;left&amp;quot;},{&amp;quot;s&amp;quot;:59,&amp;quot;n&amp;quot;:&amp;quot;a&amp;quot;,&amp;quot;v&amp;quot;:&amp;quot;left&amp;quot;},{&amp;quot;s&amp;quot;:65,&amp;quot;n&amp;quot;:&amp;quot;a&amp;quot;,&amp;quot;v&amp;quot;:&amp;quot;left&amp;quot;}]}&quot; data-lucid-type=&quot;application/vnd.lucid.text&quot;&gt;&lt;span style=&quot;color: rgb(58, 65, 74);&quot;&gt;&lt;/span&gt;&lt;span style=&quot;color: rgb(58, 65, 74);&quot;&gt;Timestamp&lt;/span&gt;&lt;/span&gt;&lt;br&gt;&lt;span data-lucid-content=&quot;{&amp;quot;t&amp;quot;:&amp;quot;Arbitration ID\nIs Extended ID?\nData\nDecoded Data\nTimestamp\nDelay\n__hash__&amp;quot;,&amp;quot;m&amp;quot;:[{&amp;quot;s&amp;quot;:0,&amp;quot;n&amp;quot;:&amp;quot;a&amp;quot;,&amp;quot;v&amp;quot;:&amp;quot;left&amp;quot;},{&amp;quot;s&amp;quot;:0,&amp;quot;n&amp;quot;:&amp;quot;s&amp;quot;,&amp;quot;v&amp;quot;:22.22222222222222,&amp;quot;e&amp;quot;:73},{&amp;quot;s&amp;quot;:0,&amp;quot;n&amp;quot;:&amp;quot;fsp&amp;quot;,&amp;quot;v&amp;quot;:&amp;quot;ss_presetShapeStyle1_textStyle&amp;quot;,&amp;quot;e&amp;quot;:73},{&amp;quot;s&amp;quot;:0,&amp;quot;n&amp;quot;:&amp;quot;fsp2&amp;quot;,&amp;quot;v&amp;quot;:&amp;quot;ss_presetShapeStyle1_textStyle&amp;quot;,&amp;quot;e&amp;quot;:73},{&amp;quot;s&amp;quot;:15,&amp;quot;n&amp;quot;:&amp;quot;a&amp;quot;,&amp;quot;v&amp;quot;:&amp;quot;left&amp;quot;},{&amp;quot;s&amp;quot;:31,&amp;quot;n&amp;quot;:&amp;quot;a&amp;quot;,&amp;quot;v&amp;quot;:&amp;quot;left&amp;quot;},{&amp;quot;s&amp;quot;:36,&amp;quot;n&amp;quot;:&amp;quot;a&amp;quot;,&amp;quot;v&amp;quot;:&amp;quot;left&amp;quot;},{&amp;quot;s&amp;quot;:49,&amp;quot;n&amp;quot;:&amp;quot;a&amp;quot;,&amp;quot;v&amp;quot;:&amp;quot;left&amp;quot;},{&amp;quot;s&amp;quot;:59,&amp;quot;n&amp;quot;:&amp;quot;a&amp;quot;,&amp;quot;v&amp;quot;:&amp;quot;left&amp;quot;},{&amp;quot;s&amp;quot;:65,&amp;quot;n&amp;quot;:&amp;quot;a&amp;quot;,&amp;quot;v&amp;quot;:&amp;quot;left&amp;quot;}]}&quot; data-lucid-type=&quot;application/vnd.lucid.text&quot;&gt;&lt;span style=&quot;color: rgb(58, 65, 74);&quot;&gt;&lt;/span&gt;&lt;span style=&quot;color: rgb(58, 65, 74);&quot;&gt;Delay&lt;/span&gt;&lt;/span&gt;&lt;br&gt;&lt;span data-lucid-content=&quot;{&amp;quot;t&amp;quot;:&amp;quot;Arbitration ID\nIs Extended ID?\nData\nDecoded Data\nTimestamp\nDelay\n__hash__&amp;quot;,&amp;quot;m&amp;quot;:[{&amp;quot;s&amp;quot;:0,&amp;quot;n&amp;quot;:&amp;quot;a&amp;quot;,&amp;quot;v&amp;quot;:&amp;quot;left&amp;quot;},{&amp;quot;s&amp;quot;:0,&amp;quot;n&amp;quot;:&amp;quot;s&amp;quot;,&amp;quot;v&amp;quot;:22.22222222222222,&amp;quot;e&amp;quot;:73},{&amp;quot;s&amp;quot;:0,&amp;quot;n&amp;quot;:&amp;quot;fsp&amp;quot;,&amp;quot;v&amp;quot;:&amp;quot;ss_presetShapeStyle1_textStyle&amp;quot;,&amp;quot;e&amp;quot;:73},{&amp;quot;s&amp;quot;:0,&amp;quot;n&amp;quot;:&amp;quot;fsp2&amp;quot;,&amp;quot;v&amp;quot;:&amp;quot;ss_presetShapeStyle1_textStyle&amp;quot;,&amp;quot;e&amp;quot;:73},{&amp;quot;s&amp;quot;:15,&amp;quot;n&amp;quot;:&amp;quot;a&amp;quot;,&amp;quot;v&amp;quot;:&amp;quot;left&amp;quot;},{&amp;quot;s&amp;quot;:31,&amp;quot;n&amp;quot;:&amp;quot;a&amp;quot;,&amp;quot;v&amp;quot;:&amp;quot;left&amp;quot;},{&amp;quot;s&amp;quot;:36,&amp;quot;n&amp;quot;:&amp;quot;a&amp;quot;,&amp;quot;v&amp;quot;:&amp;quot;left&amp;quot;},{&amp;quot;s&amp;quot;:49,&amp;quot;n&amp;quot;:&amp;quot;a&amp;quot;,&amp;quot;v&amp;quot;:&amp;quot;left&amp;quot;},{&amp;quot;s&amp;quot;:59,&amp;quot;n&amp;quot;:&amp;quot;a&amp;quot;,&amp;quot;v&amp;quot;:&amp;quot;left&amp;quot;},{&amp;quot;s&amp;quot;:65,&amp;quot;n&amp;quot;:&amp;quot;a&amp;quot;,&amp;quot;v&amp;quot;:&amp;quot;left&amp;quot;}]}&quot; data-lucid-type=&quot;application/vnd.lucid.text&quot;&gt;&lt;span style=&quot;color: rgb(58, 65, 74);&quot;&gt;&lt;/span&gt;&lt;span style=&quot;color: rgb(58, 65, 74);&quot;&gt;__hash__&lt;/span&gt;&lt;/span&gt;&lt;/font&gt;&lt;/div&gt;" style="rounded=0;whiteSpace=wrap;html=1;align=left;" vertex="1" parent="1">
          <mxGeometry x="-840" y="162.5" width="80" height="90" as="geometry" />
        </mxCell>
        <mxCell id="kPSTsuMpHaf5HZJXgp0y-50" value="&lt;div&gt;Message&amp;nbsp;&lt;/div&gt;&lt;div&gt;Notifier&lt;/div&gt;" style="rhombus;whiteSpace=wrap;html=1;fillColor=#dae8fc;strokeColor=#6c8ebf;fontSize=10;" vertex="1" parent="1">
          <mxGeometry x="-150" y="170" width="70" height="60" as="geometry" />
        </mxCell>
        <mxCell id="kPSTsuMpHaf5HZJXgp0y-79" style="edgeStyle=orthogonalEdgeStyle;rounded=0;orthogonalLoop=1;jettySize=auto;html=1;exitX=1;exitY=0.5;exitDx=0;exitDy=0;entryX=0;entryY=0.5;entryDx=0;entryDy=0;" edge="1" parent="1" source="kPSTsuMpHaf5HZJXgp0y-52" target="kPSTsuMpHaf5HZJXgp0y-78">
          <mxGeometry relative="1" as="geometry" />
        </mxCell>
        <mxCell id="kPSTsuMpHaf5HZJXgp0y-108" style="edgeStyle=orthogonalEdgeStyle;rounded=0;orthogonalLoop=1;jettySize=auto;html=1;exitX=0.5;exitY=0;exitDx=0;exitDy=0;entryX=0;entryY=0.5;entryDx=0;entryDy=0;" edge="1" parent="1" source="kPSTsuMpHaf5HZJXgp0y-52" target="kPSTsuMpHaf5HZJXgp0y-70">
          <mxGeometry relative="1" as="geometry" />
        </mxCell>
        <mxCell id="kPSTsuMpHaf5HZJXgp0y-52" value="&lt;div&gt;Message&amp;nbsp;&lt;/div&gt;&lt;div&gt;Notifier&lt;/div&gt;" style="rhombus;whiteSpace=wrap;html=1;fillColor=#dae8fc;strokeColor=#6c8ebf;fontSize=10;" vertex="1" parent="1">
          <mxGeometry x="-490" y="437.5" width="70" height="60" as="geometry" />
        </mxCell>
        <mxCell id="kPSTsuMpHaf5HZJXgp0y-56" value="" style="shape=parallelogram;perimeter=parallelogramPerimeter;whiteSpace=wrap;html=1;fixedSize=1;fillColor=#f8cecc;strokeColor=#b85450;fontSize=10;" vertex="1" parent="1">
          <mxGeometry x="-740" y="240" width="80" height="20" as="geometry" />
        </mxCell>
        <mxCell id="kPSTsuMpHaf5HZJXgp0y-61" style="edgeStyle=orthogonalEdgeStyle;rounded=0;orthogonalLoop=1;jettySize=auto;html=1;exitX=0.1;exitY=0.5;exitDx=0;exitDy=0;exitPerimeter=0;entryX=0;entryY=0.5;entryDx=0;entryDy=0;" edge="1" parent="1" source="kPSTsuMpHaf5HZJXgp0y-57" target="kPSTsuMpHaf5HZJXgp0y-58">
          <mxGeometry relative="1" as="geometry" />
        </mxCell>
        <mxCell id="kPSTsuMpHaf5HZJXgp0y-57" value="" style="shape=curlyBracket;whiteSpace=wrap;html=1;rounded=1;flipH=1;labelPosition=right;verticalLabelPosition=middle;align=left;verticalAlign=middle;" vertex="1" parent="1">
          <mxGeometry x="-650" y="140" width="20" height="120" as="geometry" />
        </mxCell>
        <mxCell id="kPSTsuMpHaf5HZJXgp0y-67" style="edgeStyle=orthogonalEdgeStyle;rounded=0;orthogonalLoop=1;jettySize=auto;html=1;exitX=1;exitY=0.5;exitDx=0;exitDy=0;entryX=0;entryY=0.5;entryDx=0;entryDy=0;" edge="1" parent="1" source="kPSTsuMpHaf5HZJXgp0y-58" target="kPSTsuMpHaf5HZJXgp0y-66">
          <mxGeometry relative="1" as="geometry" />
        </mxCell>
        <mxCell id="kPSTsuMpHaf5HZJXgp0y-73" style="edgeStyle=orthogonalEdgeStyle;rounded=0;orthogonalLoop=1;jettySize=auto;html=1;exitX=1;exitY=1;exitDx=0;exitDy=0;entryX=0.5;entryY=0;entryDx=0;entryDy=0;" edge="1" parent="1" source="kPSTsuMpHaf5HZJXgp0y-58" target="kPSTsuMpHaf5HZJXgp0y-70">
          <mxGeometry relative="1" as="geometry">
            <Array as="points">
              <mxPoint x="-487" y="240" />
              <mxPoint x="-365" y="240" />
            </Array>
          </mxGeometry>
        </mxCell>
        <mxCell id="kPSTsuMpHaf5HZJXgp0y-58" value="&lt;div&gt;Message&lt;br&gt;&lt;/div&gt;&lt;div&gt;Publisher&lt;br&gt;&lt;/div&gt;" style="rhombus;whiteSpace=wrap;html=1;fillColor=#dae8fc;strokeColor=#6c8ebf;fontSize=10;" vertex="1" parent="1">
          <mxGeometry x="-540" y="162.5" width="70" height="75" as="geometry" />
        </mxCell>
        <mxCell id="kPSTsuMpHaf5HZJXgp0y-68" style="edgeStyle=orthogonalEdgeStyle;rounded=0;orthogonalLoop=1;jettySize=auto;html=1;exitX=1;exitY=0.5;exitDx=0;exitDy=0;entryX=0;entryY=0.5;entryDx=0;entryDy=0;" edge="1" parent="1" source="kPSTsuMpHaf5HZJXgp0y-66" target="kPSTsuMpHaf5HZJXgp0y-23">
          <mxGeometry relative="1" as="geometry" />
        </mxCell>
        <mxCell id="kPSTsuMpHaf5HZJXgp0y-66" value="&lt;div style=&quot;font-size: 10px;&quot;&gt;Request &lt;br&gt;&lt;/div&gt;&lt;div style=&quot;font-size: 10px;&quot;&gt;Message &lt;br&gt;&lt;/div&gt;" style="shape=parallelogram;perimeter=parallelogramPerimeter;whiteSpace=wrap;html=1;fixedSize=1;fillColor=#f8cecc;strokeColor=#b85450;fontSize=10;" vertex="1" parent="1">
          <mxGeometry x="-450" y="185" width="80" height="30" as="geometry" />
        </mxCell>
        <mxCell id="kPSTsuMpHaf5HZJXgp0y-70" value="Log File" style="shape=document;whiteSpace=wrap;html=1;boundedLbl=1;" vertex="1" parent="1">
          <mxGeometry x="-400" y="340" width="70" height="40" as="geometry" />
        </mxCell>
        <mxCell id="kPSTsuMpHaf5HZJXgp0y-77" style="edgeStyle=orthogonalEdgeStyle;rounded=0;orthogonalLoop=1;jettySize=auto;html=1;exitX=1;exitY=0.5;exitDx=0;exitDy=0;entryX=0;entryY=0.5;entryDx=0;entryDy=0;" edge="1" parent="1" source="kPSTsuMpHaf5HZJXgp0y-74" target="kPSTsuMpHaf5HZJXgp0y-50">
          <mxGeometry relative="1" as="geometry" />
        </mxCell>
        <mxCell id="kPSTsuMpHaf5HZJXgp0y-74" value="&lt;div style=&quot;font-size: 10px;&quot;&gt;Response &lt;br&gt;&lt;/div&gt;&lt;div style=&quot;font-size: 10px;&quot;&gt;Message &lt;br&gt;&lt;/div&gt;" style="shape=parallelogram;perimeter=parallelogramPerimeter;whiteSpace=wrap;html=1;fixedSize=1;fillColor=#ffe6cc;strokeColor=#d79b00;fontSize=10;" vertex="1" parent="1">
          <mxGeometry x="-240" y="185" width="80" height="30" as="geometry" />
        </mxCell>
        <mxCell id="kPSTsuMpHaf5HZJXgp0y-84" style="edgeStyle=orthogonalEdgeStyle;rounded=0;orthogonalLoop=1;jettySize=auto;html=1;exitX=1;exitY=0.5;exitDx=0;exitDy=0;entryX=0;entryY=0.5;entryDx=0;entryDy=0;" edge="1" parent="1" source="kPSTsuMpHaf5HZJXgp0y-78" target="kPSTsuMpHaf5HZJXgp0y-83">
          <mxGeometry relative="1" as="geometry" />
        </mxCell>
        <mxCell id="kPSTsuMpHaf5HZJXgp0y-78" value="&lt;div style=&quot;font-size: 10px;&quot;&gt;Response&lt;/div&gt;&lt;div style=&quot;font-size: 10px;&quot;&gt;Message &lt;br&gt;&lt;/div&gt;" style="shape=parallelogram;perimeter=parallelogramPerimeter;whiteSpace=wrap;html=1;fixedSize=1;fillColor=#ffe6cc;strokeColor=#d79b00;fontSize=10;" vertex="1" parent="1">
          <mxGeometry x="-405" y="452.5" width="80" height="30" as="geometry" />
        </mxCell>
        <mxCell id="kPSTsuMpHaf5HZJXgp0y-82" value="CVS Data File" style="shape=document;whiteSpace=wrap;html=1;boundedLbl=1;" vertex="1" parent="1">
          <mxGeometry x="-300" y="340" width="80" height="40" as="geometry" />
        </mxCell>
        <mxCell id="kPSTsuMpHaf5HZJXgp0y-109" style="edgeStyle=orthogonalEdgeStyle;rounded=0;orthogonalLoop=1;jettySize=auto;html=1;exitX=0;exitY=0;exitDx=0;exitDy=0;entryX=1;entryY=0.5;entryDx=0;entryDy=0;" edge="1" parent="1" source="kPSTsuMpHaf5HZJXgp0y-83" target="kPSTsuMpHaf5HZJXgp0y-70">
          <mxGeometry relative="1" as="geometry">
            <Array as="points">
              <mxPoint x="-310" y="449" />
              <mxPoint x="-310" y="360" />
            </Array>
          </mxGeometry>
        </mxCell>
        <mxCell id="kPSTsuMpHaf5HZJXgp0y-83" value="&lt;div&gt;CSV&lt;/div&gt;&lt;div&gt;Writer&lt;br&gt;&lt;/div&gt;" style="rhombus;whiteSpace=wrap;html=1;fillColor=#dae8fc;strokeColor=#6c8ebf;fontSize=10;" vertex="1" parent="1">
          <mxGeometry x="-295" y="430" width="70" height="75" as="geometry" />
        </mxCell>
        <mxCell id="kPSTsuMpHaf5HZJXgp0y-107" value="" style="group" vertex="1" connectable="0" parent="1">
          <mxGeometry x="-900" y="340" width="390" height="260" as="geometry" />
        </mxCell>
        <mxCell id="kPSTsuMpHaf5HZJXgp0y-106" value="" style="rounded=1;whiteSpace=wrap;html=1;fillColor=#f5f5f5;fontColor=#333333;strokeColor=#666666;movable=1;resizable=1;rotatable=1;deletable=1;editable=1;locked=0;connectable=1;" vertex="1" parent="kPSTsuMpHaf5HZJXgp0y-107">
          <mxGeometry width="390" height="260" as="geometry" />
        </mxCell>
        <mxCell id="kPSTsuMpHaf5HZJXgp0y-81" value="&lt;b&gt;&lt;font style=&quot;font-size: 18px;&quot;&gt;CAN Message Link&lt;/font&gt;&lt;/b&gt;" style="text;html=1;align=center;verticalAlign=middle;whiteSpace=wrap;rounded=0;movable=1;resizable=1;rotatable=1;deletable=1;editable=1;locked=0;connectable=1;" vertex="1" parent="kPSTsuMpHaf5HZJXgp0y-107">
          <mxGeometry x="100" y="10" width="190" height="30" as="geometry" />
        </mxCell>
        <mxCell id="kPSTsuMpHaf5HZJXgp0y-85" value="A class that tracks the responses expected from a given request. The class also for decoding of the response data into meaning full data." style="text;html=1;align=center;verticalAlign=middle;whiteSpace=wrap;rounded=0;movable=1;resizable=1;rotatable=1;deletable=1;editable=1;locked=0;connectable=1;" vertex="1" parent="kPSTsuMpHaf5HZJXgp0y-107">
          <mxGeometry y="40" width="390" height="30" as="geometry" />
        </mxCell>
        <mxCell id="kPSTsuMpHaf5HZJXgp0y-96" value="" style="edgeStyle=orthogonalEdgeStyle;rounded=0;orthogonalLoop=1;jettySize=auto;html=1;movable=1;resizable=1;rotatable=1;deletable=1;editable=1;locked=0;connectable=1;" edge="1" parent="kPSTsuMpHaf5HZJXgp0y-107" source="kPSTsuMpHaf5HZJXgp0y-89" target="kPSTsuMpHaf5HZJXgp0y-95">
          <mxGeometry relative="1" as="geometry" />
        </mxCell>
        <mxCell id="kPSTsuMpHaf5HZJXgp0y-89" value="&lt;div style=&quot;font-size: 10px;&quot;&gt;Request&lt;/div&gt;&lt;div style=&quot;font-size: 10px;&quot;&gt;Message &lt;br&gt;&lt;/div&gt;" style="shape=parallelogram;perimeter=parallelogramPerimeter;whiteSpace=wrap;html=1;fixedSize=1;fillColor=#f8cecc;strokeColor=#b85450;fontSize=10;movable=1;resizable=1;rotatable=1;deletable=1;editable=1;locked=0;connectable=1;" vertex="1" parent="kPSTsuMpHaf5HZJXgp0y-107">
          <mxGeometry x="10" y="130" width="80" height="30" as="geometry" />
        </mxCell>
        <mxCell id="kPSTsuMpHaf5HZJXgp0y-105" style="edgeStyle=orthogonalEdgeStyle;rounded=0;orthogonalLoop=1;jettySize=auto;html=1;exitX=1;exitY=0.5;exitDx=0;exitDy=0;entryX=0;entryY=0.5;entryDx=0;entryDy=0;movable=1;resizable=1;rotatable=1;deletable=1;editable=1;locked=0;connectable=1;" edge="1" parent="kPSTsuMpHaf5HZJXgp0y-107" source="kPSTsuMpHaf5HZJXgp0y-90" target="kPSTsuMpHaf5HZJXgp0y-104">
          <mxGeometry relative="1" as="geometry" />
        </mxCell>
        <mxCell id="kPSTsuMpHaf5HZJXgp0y-90" value="&lt;div style=&quot;font-size: 10px;&quot;&gt;Response &lt;br&gt;&lt;/div&gt;&lt;div style=&quot;font-size: 10px;&quot;&gt;Message &lt;br&gt;&lt;/div&gt;" style="shape=parallelogram;perimeter=parallelogramPerimeter;whiteSpace=wrap;html=1;fixedSize=1;fillColor=#ffe6cc;strokeColor=#d79b00;fontSize=10;movable=1;resizable=1;rotatable=1;deletable=1;editable=1;locked=0;connectable=1;" vertex="1" parent="kPSTsuMpHaf5HZJXgp0y-107">
          <mxGeometry x="140" y="95" width="80" height="30" as="geometry" />
        </mxCell>
        <mxCell id="kPSTsuMpHaf5HZJXgp0y-103" style="edgeStyle=orthogonalEdgeStyle;rounded=0;orthogonalLoop=1;jettySize=auto;html=1;exitX=1;exitY=0.5;exitDx=0;exitDy=0;movable=1;resizable=1;rotatable=1;deletable=1;editable=1;locked=0;connectable=1;" edge="1" parent="kPSTsuMpHaf5HZJXgp0y-107" source="kPSTsuMpHaf5HZJXgp0y-91" target="kPSTsuMpHaf5HZJXgp0y-100">
          <mxGeometry relative="1" as="geometry">
            <Array as="points">
              <mxPoint x="230" y="145" />
              <mxPoint x="230" y="190" />
            </Array>
          </mxGeometry>
        </mxCell>
        <mxCell id="kPSTsuMpHaf5HZJXgp0y-91" value="" style="shape=parallelogram;perimeter=parallelogramPerimeter;whiteSpace=wrap;html=1;fixedSize=1;fillColor=#ffe6cc;strokeColor=#d79b00;fontSize=10;movable=1;resizable=1;rotatable=1;deletable=1;editable=1;locked=0;connectable=1;" vertex="1" parent="kPSTsuMpHaf5HZJXgp0y-107">
          <mxGeometry x="140" y="135" width="80" height="20" as="geometry" />
        </mxCell>
        <mxCell id="kPSTsuMpHaf5HZJXgp0y-92" value="" style="shape=parallelogram;perimeter=parallelogramPerimeter;whiteSpace=wrap;html=1;fixedSize=1;fillColor=#ffe6cc;strokeColor=#d79b00;fontSize=10;movable=1;resizable=1;rotatable=1;deletable=1;editable=1;locked=0;connectable=1;" vertex="1" parent="kPSTsuMpHaf5HZJXgp0y-107">
          <mxGeometry x="140" y="165" width="80" height="20" as="geometry" />
        </mxCell>
        <mxCell id="kPSTsuMpHaf5HZJXgp0y-94" value="&lt;font style=&quot;font-size: 13px;&quot;&gt;&lt;b&gt;...&lt;/b&gt;&lt;/font&gt;" style="text;html=1;align=center;verticalAlign=middle;resizable=1;points=[];autosize=1;strokeColor=none;fillColor=none;fontSize=10;movable=1;rotatable=1;deletable=1;editable=1;locked=0;connectable=1;" vertex="1" parent="kPSTsuMpHaf5HZJXgp0y-107">
          <mxGeometry x="165" y="185" width="30" height="30" as="geometry" />
        </mxCell>
        <mxCell id="kPSTsuMpHaf5HZJXgp0y-95" value="" style="shape=curlyBracket;whiteSpace=wrap;html=1;rounded=1;labelPosition=left;verticalLabelPosition=middle;align=right;verticalAlign=middle;movable=1;resizable=1;rotatable=1;deletable=1;editable=1;locked=0;connectable=1;" vertex="1" parent="kPSTsuMpHaf5HZJXgp0y-107">
          <mxGeometry x="120" y="85" width="20" height="120" as="geometry" />
        </mxCell>
        <mxCell id="kPSTsuMpHaf5HZJXgp0y-97" value="&lt;div style=&quot;font-size: 10px;&quot;&gt;Decoded&lt;br&gt;&lt;/div&gt;&lt;div style=&quot;font-size: 10px;&quot;&gt;Value&lt;br&gt;&lt;/div&gt;" style="shape=parallelogram;perimeter=parallelogramPerimeter;whiteSpace=wrap;html=1;fixedSize=1;fillColor=#fff2cc;strokeColor=#d6b656;fontSize=10;movable=1;resizable=1;rotatable=1;deletable=1;editable=1;locked=0;connectable=1;" vertex="1" parent="kPSTsuMpHaf5HZJXgp0y-107">
          <mxGeometry x="275" y="135" width="80" height="30" as="geometry" />
        </mxCell>
        <mxCell id="kPSTsuMpHaf5HZJXgp0y-98" value="" style="shape=parallelogram;perimeter=parallelogramPerimeter;whiteSpace=wrap;html=1;fixedSize=1;fillColor=#fff2cc;strokeColor=#d6b656;fontSize=10;movable=1;resizable=1;rotatable=1;deletable=1;editable=1;locked=0;connectable=1;" vertex="1" parent="kPSTsuMpHaf5HZJXgp0y-107">
          <mxGeometry x="270" y="175" width="80" height="20" as="geometry" />
        </mxCell>
        <mxCell id="kPSTsuMpHaf5HZJXgp0y-99" value="" style="shape=parallelogram;perimeter=parallelogramPerimeter;whiteSpace=wrap;html=1;fixedSize=1;fillColor=#fff2cc;strokeColor=#d6b656;fontSize=10;movable=1;resizable=1;rotatable=1;deletable=1;editable=1;locked=0;connectable=1;" vertex="1" parent="kPSTsuMpHaf5HZJXgp0y-107">
          <mxGeometry x="270" y="205" width="80" height="20" as="geometry" />
        </mxCell>
        <mxCell id="kPSTsuMpHaf5HZJXgp0y-100" value="" style="shape=curlyBracket;whiteSpace=wrap;html=1;rounded=1;labelPosition=left;verticalLabelPosition=middle;align=right;verticalAlign=middle;movable=1;resizable=1;rotatable=1;deletable=1;editable=1;locked=0;connectable=1;" vertex="1" parent="kPSTsuMpHaf5HZJXgp0y-107">
          <mxGeometry x="250" y="130" width="20" height="120" as="geometry" />
        </mxCell>
        <mxCell id="kPSTsuMpHaf5HZJXgp0y-101" value="&lt;font style=&quot;font-size: 13px;&quot;&gt;&lt;b&gt;...&lt;/b&gt;&lt;/font&gt;" style="text;html=1;align=center;verticalAlign=middle;resizable=1;points=[];autosize=1;strokeColor=none;fillColor=none;fontSize=10;movable=1;rotatable=1;deletable=1;editable=1;locked=0;connectable=1;" vertex="1" parent="kPSTsuMpHaf5HZJXgp0y-107">
          <mxGeometry x="290" y="230" width="30" height="30" as="geometry" />
        </mxCell>
        <mxCell id="kPSTsuMpHaf5HZJXgp0y-104" value="&lt;div style=&quot;font-size: 10px;&quot;&gt;Decoded&lt;br&gt;&lt;/div&gt;&lt;div style=&quot;font-size: 10px;&quot;&gt;Value&lt;br&gt;&lt;/div&gt;" style="shape=parallelogram;perimeter=parallelogramPerimeter;whiteSpace=wrap;html=1;fixedSize=1;fillColor=#fff2cc;strokeColor=#d6b656;fontSize=10;movable=1;resizable=1;rotatable=1;deletable=1;editable=1;locked=0;connectable=1;" vertex="1" parent="kPSTsuMpHaf5HZJXgp0y-107">
          <mxGeometry x="275" y="75" width="80" height="30" as="geometry" />
        </mxCell>
        <mxCell id="kPSTsuMpHaf5HZJXgp0y-116" value="" style="shape=link;html=1;rounded=0;exitX=1;exitY=0.75;exitDx=0;exitDy=0;entryX=0.5;entryY=1;entryDx=0;entryDy=0;edgeStyle=orthogonalEdgeStyle;" edge="1" parent="1" source="kPSTsuMpHaf5HZJXgp0y-106" target="kPSTsuMpHaf5HZJXgp0y-83">
          <mxGeometry width="100" relative="1" as="geometry">
            <mxPoint x="-490" y="500" as="sourcePoint" />
            <mxPoint x="-390" y="500" as="targetPoint" />
          </mxGeometry>
        </mxCell>
        <mxCell id="kPSTsuMpHaf5HZJXgp0y-118" value="&lt;font style=&quot;font-size: 18px;&quot;&gt;&lt;b&gt;Listening/ Decoding&lt;/b&gt;&lt;font style=&quot;font-size: 18px;&quot;&gt;&lt;b&gt;&lt;br&gt;&lt;/b&gt;&lt;/font&gt;&lt;/font&gt;" style="text;html=1;whiteSpace=wrap;overflow=hidden;rounded=0;rotation=0;fontSize=10;" vertex="1" parent="1">
          <mxGeometry x="-450" y="550" width="180" height="29" as="geometry" />
        </mxCell>
        <mxCell id="kPSTsuMpHaf5HZJXgp0y-119" style="edgeStyle=orthogonalEdgeStyle;rounded=0;orthogonalLoop=1;jettySize=auto;html=1;exitX=0.5;exitY=0;exitDx=0;exitDy=0;entryX=0.5;entryY=0.925;entryDx=0;entryDy=0;entryPerimeter=0;" edge="1" parent="1" source="kPSTsuMpHaf5HZJXgp0y-83" target="kPSTsuMpHaf5HZJXgp0y-82">
          <mxGeometry relative="1" as="geometry" />
        </mxCell>
      </root>
    </mxGraphModel>
  </diagram>
</mxfile>
